<?xml version="1.0" encoding="UTF-8" standalone="no"?>
<!DOCTYPE svg PUBLIC "-//W3C//DTD SVG 1.1//EN" "http://www.w3.org/Graphics/SVG/1.1/DTD/svg11.dtd">
<svg xmlns="http://www.w3.org/2000/svg" version="1.1" xmlns:dc="http://purl.org/dc/elements/1.1/" xmlns:xl="http://www.w3.org/1999/xlink" viewBox="-101.5 222.5 1034 680" width="1034" height="680">
  <defs>
    <marker orient="auto" overflow="visible" markerUnits="strokeWidth" id="FilledArrow_Marker" stroke-linejoin="miter" stroke-miterlimit="10" viewBox="-1 -4 10 8" markerWidth="10" markerHeight="8" color="black">
      <g>
        <path d="M 8 0 L 0 -3 L 0 3 Z" fill="currentColor" stroke="currentColor" stroke-width="1"/>
      </g>
    </marker>
  </defs>
  <g id="Canvas____V2" stroke-opacity="1" stroke="none" stroke-dasharray="none" fill="none" fill-opacity="1">
    <title>软路由 V2</title>
    <rect fill="white" x="-101.5" y="222.5" width="1034" height="680"/>
    <g id="Canvas____V2_Layer_1">
      <title>Layer 1</title>
      <g id="Graphic_12">
        <rect x="65.5" y="401" width="856.5" height="491" fill="#ebebeb"/>
        <rect x="65.5" y="401" width="856.5" height="491" stroke="gray" stroke-linecap="round" stroke-linejoin="round" stroke-width="1"/>
        <text transform="translate(70.5 406)" fill="black">
          <tspan font-family="PingFang SC" font-size="16" fill="black" x="0" y="17">客厅</tspan>
        </text>
      </g>
      <g id="Graphic_9">
        <rect x="65.5" y="233" width="280" height="124" fill="#ebebeb"/>
        <rect x="65.5" y="233" width="280" height="124" stroke="gray" stroke-linecap="round" stroke-linejoin="round" stroke-width="1"/>
        <text transform="translate(70.5 238)" fill="black">
          <tspan font-family="PingFang SC" font-size="16" fill="black" x="0" y="17">弱电箱</tspan>
        </text>
      </g>
      <g id="Graphic_3">
        <rect x="162" y="256.75" width="161.75" height="76.5" fill="white"/>
        <rect x="162" y="256.75" width="161.75" height="76.5" stroke="gray" stroke-linecap="round" stroke-linejoin="round" stroke-width="1"/>
        <text transform="translate(167 268)" fill="black">
          <tspan font-family="PingFang SC" font-size="14" fill="black" x="47.875" y="15">电信光猫</tspan>
          <tspan font-family="PingFang SC" font-size="12" fill="black" x="47.099" y="33">192.168.1.1 </tspan>
          <tspan font-family="PingFang SC" font-size="12" fill="black" x="35.123" y="50">255.255.255.0</tspan>
        </text>
      </g>
      <g id="Graphic_10">
        <text transform="translate(86 299.98026)" fill="black">
          <tspan font-family="PingFang SC" font-size="12" fill="black" x="0" y="13">光纤入户</tspan>
        </text>
      </g>
      <g id="Graphic_14">
        <path d="M -75.551155 297.67207 C -94.70312 295 -87.0658 272.50554 -56.51413 276.34375 C -53.67961 268.86185 -18.152125 270.07624 -18.384385 276.34375 C 3.89243 268.32753 32.36087 284.3117 13.26578 292.32793 C 36.17894 296.2144 12.97664 317.15417 -5.828125 313.65625 C -7.333075 319.48645 -40.95034 321.5267 -43.90099 313.65625 C -62.93683 322.0615 -102.62959 309.13795 -75.551155 297.67207 Z" fill="white"/>
        <path d="M -75.551155 297.67207 C -94.70312 295 -87.0658 272.50554 -56.51413 276.34375 C -53.67961 268.86185 -18.152125 270.07624 -18.384385 276.34375 C 3.89243 268.32753 32.36087 284.3117 13.26578 292.32793 C 36.17894 296.2144 12.97664 317.15417 -5.828125 313.65625 C -7.333075 319.48645 -40.95034 321.5267 -43.90099 313.65625 C -62.93683 322.0615 -102.62959 309.13795 -75.551155 297.67207 Z" stroke="gray" stroke-linecap="round" stroke-linejoin="round" stroke-width="1"/>
        <text transform="translate(-68.225 284)" fill="black">
          <tspan font-family="PingFang SC" font-size="16" fill="black" x="8.154998" y="17">Internet</tspan>
        </text>
      </g>
      <g id="Line_15">
        <line x1="20.521012" y1="295" x2="152.1" y2="295" marker-end="url(#FilledArrow_Marker)" stroke="black" stroke-linecap="round" stroke-linejoin="round" stroke-width="1"/>
      </g>
      <g id="Line_18">
        <line x1="242.875" y1="333.25" x2="242.875" y2="423.1" marker-end="url(#FilledArrow_Marker)" stroke="black" stroke-linecap="round" stroke-linejoin="round" stroke-width="1"/>
      </g>
      <g id="Graphic_21">
        <rect x="162" y="433" width="161.75" height="76.5" fill="#c0ffc0"/>
        <rect x="162" y="433" width="161.75" height="76.5" stroke="gray" stroke-linecap="round" stroke-linejoin="round" stroke-width="1"/>
        <text transform="translate(167 444.25)" fill="black">
          <tspan font-family="PingFang SC" font-size="12" fill="black" x="45.905" y="13">192.168.1.2</tspan>
          <tspan font-family="PingFang SC" font-size="14" fill="black" x="27.505" y="32">Linksys 路由器</tspan>
          <tspan font-family="PingFang SC" font-size="12" fill="black" x="39.305" y="50">10.200.1.1/24</tspan>
        </text>
      </g>
      <g id="Line_23">
        <line x1="323.75" y1="471.25" x2="391.75" y2="471.25" stroke="black" stroke-linecap="round" stroke-linejoin="round" stroke-width="1"/>
      </g>
      <g id="Graphic_77">
        <rect x="391.75" y="446.375" width="57.25" height="49.75" fill="#ccc"/>
        <rect x="391.75" y="446.375" width="57.25" height="49.75" stroke="gray" stroke-linecap="round" stroke-linejoin="round" stroke-width="1"/>
        <text transform="translate(396.75 454.25)" fill="black">
          <tspan font-family="PingFang SC" font-size="12" fill="black" x="5.625" y="13">交换机</tspan>
          <tspan font-family="PingFang SC" font-size="12" fill="black" x="7.383" y="30">. . . . .</tspan>
        </text>
      </g>
      <g id="Graphic_81">
        <rect x="361.875" y="555.6875" width="117" height="66.5625" fill="white"/>
        <rect x="361.875" y="555.6875" width="117" height="66.5625" stroke="gray" stroke-linecap="round" stroke-linejoin="round" stroke-width="1"/>
        <text transform="translate(366.875 561.96875)" fill="black">
          <tspan font-family="PingFang SC" font-size="14" fill="black" x="8.861" y="15">树莓派（HA）</tspan>
          <tspan font-family="PingFang SC" font-size="12" fill="black" x="19.93" y="33">10.200.1.130</tspan>
          <tspan font-family="PingFang SC" font-size="12" fill="#008f00" x="4.336" y="50">路由：10.200.1.94</tspan>
        </text>
      </g>
      <g id="Graphic_83">
        <rect x="193.5625" y="555.6875" width="98.625" height="56.625" fill="white"/>
        <rect x="193.5625" y="555.6875" width="98.625" height="56.625" stroke="gray" stroke-linecap="round" stroke-linejoin="round" stroke-width="1"/>
        <text transform="translate(198.5625 565.5)" fill="black">
          <tspan font-family="PingFang SC" font-size="14" fill="black" x="22.2345" y="15">iPhone</tspan>
          <tspan font-family="PingFang SC" font-size="12" fill="black" x="9.8665" y="33">10.200.1.237</tspan>
        </text>
      </g>
      <g id="Line_85">
        <line x1="420.375" y1="496.125" x2="420.375" y2="555.6875" stroke="black" stroke-linecap="round" stroke-linejoin="round" stroke-width="1"/>
      </g>
      <g id="Line_88">
        <line x1="242.875" y1="509.5" x2="242.875" y2="555.6875" stroke="black" stroke-linecap="round" stroke-linejoin="round" stroke-dasharray="4.0,4.0" stroke-width="1"/>
      </g>
      <g id="Graphic_16">
        <path d="M 527 512.2289 L 885 512.2289 C 890.5228 512.2289 895 516.70607 895 522.2289 L 895 859.2289 C 895 864.7518 890.5228 869.2289 885 869.2289 L 527 869.2289 C 521.47715 869.2289 517 864.7518 517 859.2289 L 517 522.2289 C 517 516.70607 521.47715 512.2289 527 512.2289 Z" fill="#ffffc0"/>
        <path d="M 527 512.2289 L 885 512.2289 C 890.5228 512.2289 895 516.70607 895 522.2289 L 895 859.2289 C 895 864.7518 890.5228 869.2289 885 869.2289 L 527 869.2289 C 521.47715 869.2289 517 864.7518 517 859.2289 L 517 522.2289 C 517 516.70607 521.47715 512.2289 527 512.2289 Z" stroke="gray" stroke-linecap="round" stroke-linejoin="round" stroke-width="1"/>
        <text transform="translate(522 517.2289)" fill="black">
          <tspan font-family="PingFang SC" font-size="16" fill="black" x="0" y="17">二级路由</tspan>
        </text>
      </g>
      <g id="Graphic_26">
        <rect x="566.5625" y="669.63855" width="125.75" height="76.5" fill="#c0ffc0"/>
        <rect x="566.5625" y="669.63855" width="125.75" height="76.5" stroke="gray" stroke-linecap="round" stroke-linejoin="round" stroke-width="1"/>
        <text transform="translate(571.5625 680.88855)" fill="black">
          <tspan font-family="PingFang SC" font-size="12" fill="black" x="21.023" y="13">192.168.2.147</tspan>
          <tspan font-family="PingFang SC" font-size="14" fill="black" x="7.412" y="32">TP-Link 子路由</tspan>
          <tspan font-family="PingFang SC" font-size="12" fill="black" x="18.899" y="50">192.168.1.1/24</tspan>
        </text>
      </g>
      <g id="Line_39">
        <line x1="710.3125" y1="593.9375" x2="746.9127" y2="593.9375" stroke="black" stroke-linecap="round" stroke-linejoin="round" stroke-width="1"/>
      </g>
      <g id="Graphic_40">
        <rect x="746.9127" y="683.01355" width="125.75" height="49.75" fill="white"/>
        <rect x="746.9127" y="683.01355" width="125.75" height="49.75" stroke="gray" stroke-linecap="round" stroke-linejoin="round" stroke-width="1"/>
        <text transform="translate(751.9127 689.38855)" fill="black">
          <tspan font-family="PingFang SC" font-size="14" fill="black" x="30.827" y="15">Sony TV</tspan>
          <tspan font-family="PingFang SC" font-size="12" fill="black" x="21.023" y="33">192.168.2.170</tspan>
        </text>
      </g>
      <g id="Line_41">
        <path d="M 775.5377 618.8125 L 775.5377 651.9061 L 809.7877 651.9061 L 809.7877 683.01355" stroke="black" stroke-linecap="round" stroke-linejoin="round" stroke-width="1"/>
      </g>
      <g id="Graphic_42">
        <rect x="542" y="797.46395" width="111.4762" height="56.625" fill="white"/>
        <rect x="542" y="797.46395" width="111.4762" height="56.625" stroke="gray" stroke-linecap="round" stroke-linejoin="round" stroke-width="1"/>
        <text transform="translate(547 807.27645)" fill="black">
          <tspan font-family="PingFang SC" font-size="14" fill="black" x="14.989102" y="15">Playstation</tspan>
          <tspan font-family="PingFang SC" font-size="12" fill="black" x="14.762102" y="33">192.168.1.102</tspan>
        </text>
      </g>
      <g id="Graphic_43">
        <rect x="690.5863" y="797.46395" width="111.4762" height="56.625" fill="white"/>
        <rect x="690.5863" y="797.46395" width="111.4762" height="56.625" stroke="gray" stroke-linecap="round" stroke-linejoin="round" stroke-width="1"/>
        <text transform="translate(695.5863 807.27645)" fill="black">
          <tspan font-family="PingFang SC" font-size="14" fill="black" x="29.031102" y="15">Switch</tspan>
          <tspan font-family="PingFang SC" font-size="12" fill="black" x="14.762102" y="33">192.168.1.104</tspan>
        </text>
      </g>
      <g id="Line_79">
        <path d="M 629.4375 746.13855 L 629.4375 771.80125 L 746.3244 771.80125 L 746.3244 797.46395" stroke="black" stroke-linecap="round" stroke-linejoin="round" stroke-dasharray="4.0,4.0" stroke-width="1"/>
      </g>
      <g id="Line_80">
        <path d="M 629.4375 746.13855 L 629.4375 771.80125 L 597.7381 771.80125 L 597.7381 797.46395" stroke="black" stroke-linecap="round" stroke-linejoin="round" stroke-dasharray="4.0,4.0" stroke-width="1"/>
      </g>
      <g id="Graphic_89">
        <rect x="746.9127" y="569.0625" width="57.25" height="49.75" fill="#ccc"/>
        <rect x="746.9127" y="569.0625" width="57.25" height="49.75" stroke="gray" stroke-linecap="round" stroke-linejoin="round" stroke-width="1"/>
        <text transform="translate(751.9127 576.9375)" fill="black">
          <tspan font-family="PingFang SC" font-size="12" fill="black" x="5.625" y="13">交换机</tspan>
          <tspan font-family="PingFang SC" font-size="12" fill="black" x="7.383" y="30">. . . . .</tspan>
        </text>
      </g>
      <g id="Graphic_4">
        <rect x="548.5625" y="555.6875" width="161.75" height="76.5" fill="#c0ffc0"/>
        <rect x="548.5625" y="555.6875" width="161.75" height="76.5" stroke="gray" stroke-linecap="round" stroke-linejoin="round" stroke-width="1"/>
        <text transform="translate(553.5625 566.9375)" fill="black">
          <tspan font-family="PingFang SC" font-size="12" fill="black" x="44.711" y="13">10.200.1.94</tspan>
          <tspan font-family="PingFang SC" font-size="14" fill="black" x="38.908" y="32">R2S 软路由</tspan>
          <tspan font-family="PingFang SC" font-size="12" fill="black" x="35.705" y="50">192.168.2.1/24</tspan>
        </text>
      </g>
      <g id="Line_143">
        <path d="M 761.2252 618.8125 L 761.2252 653.7227 L 629.4375 653.7227 L 629.4375 669.63855" stroke="black" stroke-linecap="round" stroke-linejoin="round" stroke-width="1"/>
      </g>
      <g id="Line_78">
        <path d="M 449 471.25 L 629.4375 471.25 L 629.4375 555.6875" stroke="black" stroke-linecap="round" stroke-linejoin="round" stroke-width="1"/>
      </g>
      <g id="Line_148">
        <line x1="792.2941" y1="276.5956" x2="844.0238" y2="276.5956" stroke="black" stroke-linecap="round" stroke-linejoin="round" stroke-width="1"/>
      </g>
      <g id="Line_147">
        <line x1="792.2941" y1="304.375" x2="844.0238" y2="304.375" stroke="black" stroke-linecap="round" stroke-linejoin="round" stroke-dasharray="4.0,4.0" stroke-width="1"/>
      </g>
      <g id="Graphic_146">
        <text transform="translate(861 267.0956)" fill="black">
          <tspan font-family="PingFang SC" font-size="14" fill="black" x="0" y="15">有线连接</tspan>
        </text>
      </g>
      <g id="Graphic_145">
        <text transform="translate(861 294.875)" fill="black">
          <tspan font-family="PingFang SC" font-size="14" fill="black" x="0" y="15">无线连接</tspan>
        </text>
      </g>
    </g>
  </g>
</svg>
