<svg height="252" viewBox="108 207 760 252" width="760" xmlns="http://www.w3.org/2000/svg"><g fill="none"><path d="m108 207h760v252h-760z" fill="#fff"/><path d="m108.5 207.5h759v251h-759z" fill="#fff"/><path d="m136 268.25h108v162.5h-108z" stroke="#808080" stroke-dasharray="8 5" stroke-linecap="round" stroke-linejoin="round"/><text fill="#000" transform="translate(141 273.25)"><tspan fill="#000" font-family="PingFang SC" font-size="13" x="16.5" y="14">多设备共享</tspan></text><path d="m294 241h326v195h-326z" fill="#ccc"/><path d="m294 241h326v195h-326z" stroke="#808080" stroke-linecap="round" stroke-linejoin="round"/><text fill="#000" transform="translate(299 246)"><tspan fill="#000" font-family="PingFang SC" font-size="16" x="63.808" y="17">显示器（Dell U2720QM）</tspan></text><path d="m161 348h58v26h-58z" fill="#c0ffc0"/><path d="m161 348h58v26h-58z" stroke="#808080" stroke-linecap="round" stroke-linejoin="round"/><text fill="#000" transform="translate(166 352)"><tspan fill="#000" font-family="PingFang SC" font-size="13" x="11" y="14">鼠标</tspan></text><path d="m161 306h58v26h-58z" fill="#c0ffc0"/><path d="m161 306h58v26h-58z" stroke="#808080" stroke-linecap="round" stroke-linejoin="round"/><text fill="#000" transform="translate(166 310)"><tspan fill="#000" font-family="PingFang SC" font-size="13" x="11" y="14">键盘</tspan></text><path d="m294 361h-75" stroke="#000" stroke-linecap="round" stroke-linejoin="round"/><path d="m294 319h-75" stroke="#000" stroke-linecap="round" stroke-linejoin="round"/><path d="m294 306h108v26h-108z" fill="#fff"/><path d="m294 306h108v26h-108z" stroke="#808080" stroke-linecap="round" stroke-linejoin="round"/><text fill="#000" transform="translate(299 310)"><tspan fill="#000" font-family="PingFang SC" font-size="13" x="9.0055" y="14">USB 3.0 下行</tspan></text><path d="m294 348h108v26h-108z" fill="#fff"/><path d="m294 348h108v26h-108z" stroke="#808080" stroke-linecap="round" stroke-linejoin="round"/><text fill="#000" transform="translate(299 352)"><tspan fill="#000" font-family="PingFang SC" font-size="13" x="9.0055" y="14">USB 3.0 下行</tspan></text><path d="m512 296.25h108v45.5h-108z" fill="#fff"/><path d="m512 296.25h108v45.5h-108z" stroke="#808080" stroke-linecap="round" stroke-linejoin="round"/><text fill="#000" transform="translate(517 301)"><tspan fill="#000" font-family="PingFang SC" font-size="13" x="25.6715" y="14">Type-C</tspan> <tspan fill="#000" font-family="PingFang SC" font-size="13" x="6.0155" y="32">支持DP1.4）</tspan></text><path d="m722.5 225.375h127v45.5h-127z" fill="#ffffc0"/><path d="m722.5 225.375h127v45.5h-127z" stroke="#808080" stroke-linecap="round" stroke-linejoin="round"/><text fill="#000" transform="translate(727.5 237.625)"><tspan fill="#000" font-family="PingFang SC" font-size="15" x="26.445" y="16">Mac Mini</tspan></text><path d="m722.5 296.75h127v126.25h-127z" fill="#ffffc0"/><path d="m722.5 296.75h127v126.25h-127z" stroke="#808080" stroke-linecap="round" stroke-linejoin="round"/><text fill="#000" transform="translate(727.5 301.75)"><tspan fill="#000" font-family="PingFang SC" font-size="15" x="48.225" y="16">PC</tspan></text><path d="m620 319h51.25v-70.875h51.25" stroke="#b1001c" stroke-linecap="round" stroke-linejoin="round"/><path d="m722.5 382h81.5v26h-81.5z" fill="#fff"/><path d="m722.5 382h81.5v26h-81.5z" stroke="#808080" stroke-linecap="round" stroke-linejoin="round"/><text fill="#000" transform="translate(727.5 386)"><tspan fill="#000" font-family="PingFang SC" font-size="13" x=".988" y="14">DP（显卡）</tspan></text><path d="m527 381.5h93v26h-93z" fill="#fff"/><path d="m527 381.5h93v26h-93z" stroke="#808080" stroke-linecap="round" stroke-linejoin="round"/><text fill="#000" transform="translate(532 385.5)"><tspan fill="#000" font-family="PingFang SC" font-size="13" x="17.5735" y="14">DP 端口</tspan></text><path d="m620 394.5 102.5.5" stroke="#000" stroke-linecap="round" stroke-linejoin="round"/><path d="m722.5 336.5h81.5v26h-81.5z" fill="#fff"/><path d="m722.5 336.5h81.5v26h-81.5z" stroke="#808080" stroke-linecap="round" stroke-linejoin="round"/><text fill="#000" transform="translate(727.5 340.5)"><tspan fill="#000" font-family="PingFang SC" font-size="13" x="16.6855" y="14">雷电 4</tspan></text><path d="m620 319h51.25v30.5h51.25" stroke="#b1001c" stroke-linecap="round" stroke-linejoin="round"/><path d="m294 390h108v26h-108z" fill="#fff"/><path d="m294 390h108v26h-108z" stroke="#808080" stroke-linecap="round" stroke-linejoin="round"/><text fill="#000" transform="translate(299 394)"><tspan fill="#000" font-family="PingFang SC" font-size="13" x="10" y="14">音频输出端口</tspan></text><path d="m161 390h58v26h-58z" fill="#c0ffc0"/><path d="m161 390h58v26h-58z" stroke="#808080" stroke-linecap="round" stroke-linejoin="round"/><text fill="#000" transform="translate(166 394)"><tspan fill="#000" font-family="PingFang SC" font-size="13" x="11" y="14">音响</tspan></text><path d="m219 403h75" stroke="#000" stroke-linecap="round" stroke-linejoin="round"/></g></svg>