<svg xmlns="http://www.w3.org/2000/svg" xmlns:xlink="http://www.w3.org/1999/xlink" id="processonSvg1000" viewBox="273.2500000000001 56.0 769.4999999999999 920.5" width="769.4999999999999" height="920.5"><defs id="ProcessOnDefs1001"><marker id="ProcessOnMarker1020" markerUnits="userSpaceOnUse" orient="auto" markerWidth="16.23606797749979" markerHeight="10.550836550532098" viewBox="-1.0 -1.3763819204711736 16.23606797749979 10.550836550532098" refX="-1.0" refY="3.8990363547948754"><path id="ProcessOnPath1021" d="M12.0 3.8990363547948754L0.0 7.798072709589751V0.0Z" stroke="#323232" stroke-width="2.0" fill="#323232" transform="matrix(1.0,0.0,0.0,1.0,0.0,0.0)"/></marker><marker id="ProcessOnMarker1028" markerUnits="userSpaceOnUse" orient="auto" markerWidth="16.23606797749979" markerHeight="10.550836550532098" viewBox="-1.0 -1.3763819204711736 16.23606797749979 10.550836550532098" refX="-1.0" refY="3.8990363547948754"><path id="ProcessOnPath1029" d="M12.0 3.8990363547948754L0.0 7.798072709589751V0.0Z" stroke="#323232" stroke-width="2.0" fill="#323232" transform="matrix(1.0,0.0,0.0,1.0,0.0,0.0)"/></marker><marker id="ProcessOnMarker1036" markerUnits="userSpaceOnUse" orient="auto" markerWidth="16.23606797749979" markerHeight="10.550836550532098" viewBox="-1.0 -1.3763819204711736 16.23606797749979 10.550836550532098" refX="-1.0" refY="3.8990363547948754"><path id="ProcessOnPath1037" d="M12.0 3.8990363547948754L0.0 7.798072709589751V0.0Z" stroke="#323232" stroke-width="2.0" fill="#323232" transform="matrix(1.0,0.0,0.0,1.0,0.0,0.0)"/></marker><marker id="ProcessOnMarker1044" markerUnits="userSpaceOnUse" orient="auto" markerWidth="16.23606797749979" markerHeight="10.550836550532098" viewBox="-1.0 -1.3763819204711736 16.23606797749979 10.550836550532098" refX="-1.0" refY="3.8990363547948754"><path id="ProcessOnPath1045" d="M12.0 3.8990363547948754L0.0 7.798072709589751V0.0Z" stroke="#323232" stroke-width="2.0" fill="#323232" transform="matrix(1.0,0.0,0.0,1.0,0.0,0.0)"/></marker><marker id="ProcessOnMarker1052" markerUnits="userSpaceOnUse" orient="auto" markerWidth="16.23606797749979" markerHeight="10.550836550532098" viewBox="-1.0 -1.3763819204711736 16.23606797749979 10.550836550532098" refX="-1.0" refY="3.8990363547948754"><path id="ProcessOnPath1053" d="M12.0 3.8990363547948754L0.0 7.798072709589751V0.0Z" stroke="#323232" stroke-width="2.0" fill="#323232" transform="matrix(1.0,0.0,0.0,1.0,0.0,0.0)"/></marker><marker id="ProcessOnMarker1063" markerUnits="userSpaceOnUse" orient="auto" markerWidth="16.23606797749979" markerHeight="10.550836550532098" viewBox="-1.0 -1.3763819204711736 16.23606797749979 10.550836550532098" refX="-1.0" refY="3.8990363547948754"><path id="ProcessOnPath1064" d="M12.0 3.8990363547948754L0.0 7.798072709589751V0.0Z" stroke="#323232" stroke-width="2.0" fill="#323232" transform="matrix(1.0,0.0,0.0,1.0,0.0,0.0)"/></marker><marker id="ProcessOnMarker1074" markerUnits="userSpaceOnUse" orient="auto" markerWidth="16.23606797749979" markerHeight="10.550836550532098" viewBox="-1.0 -1.3763819204711736 16.23606797749979 10.550836550532098" refX="-1.0" refY="3.8990363547948754"><path id="ProcessOnPath1075" d="M12.0 3.8990363547948754L0.0 7.798072709589751V0.0Z" stroke="#323232" stroke-width="2.0" fill="#323232" transform="matrix(1.0,0.0,0.0,1.0,0.0,0.0)"/></marker><marker id="ProcessOnMarker1078" markerUnits="userSpaceOnUse" orient="auto" markerWidth="16.23606797749979" markerHeight="10.550836550532098" viewBox="-1.0 -1.3763819204711736 16.23606797749979 10.550836550532098" refX="-1.0" refY="3.8990363547948754"><path id="ProcessOnPath1079" d="M12.0 3.8990363547948754L0.0 7.798072709589751V0.0Z" stroke="#323232" stroke-width="2.0" fill="#323232" transform="matrix(1.0,0.0,0.0,1.0,0.0,0.0)"/></marker><marker id="ProcessOnMarker1085" markerUnits="userSpaceOnUse" orient="auto" markerWidth="16.23606797749979" markerHeight="10.550836550532098" viewBox="-1.0 -1.3763819204711736 16.23606797749979 10.550836550532098" refX="-1.0" refY="3.8990363547948754"><path id="ProcessOnPath1086" d="M12.0 3.8990363547948754L0.0 7.798072709589751V0.0Z" stroke="#323232" stroke-width="2.0" fill="#323232" transform="matrix(1.0,0.0,0.0,1.0,0.0,0.0)"/></marker><marker id="ProcessOnMarker1097" markerUnits="userSpaceOnUse" orient="auto" markerWidth="16.23606797749979" markerHeight="10.550836550532098" viewBox="-1.0 -1.3763819204711736 16.23606797749979 10.550836550532098" refX="-1.0" refY="3.8990363547948754"><path id="ProcessOnPath1098" d="M12.0 3.8990363547948754L0.0 7.798072709589751V0.0Z" stroke="#323232" stroke-width="2.0" fill="#323232" transform="matrix(1.0,0.0,0.0,1.0,0.0,0.0)"/></marker><marker id="ProcessOnMarker1101" markerUnits="userSpaceOnUse" orient="auto" markerWidth="16.23606797749979" markerHeight="10.550836550532098" viewBox="-1.0 -1.3763819204711736 16.23606797749979 10.550836550532098" refX="-1.0" refY="3.8990363547948754"><path id="ProcessOnPath1102" d="M12.0 3.8990363547948754L0.0 7.798072709589751V0.0Z" stroke="#323232" stroke-width="2.0" fill="#323232" transform="matrix(1.0,0.0,0.0,1.0,0.0,0.0)"/></marker><marker id="ProcessOnMarker1113" markerUnits="userSpaceOnUse" orient="auto" markerWidth="16.23606797749979" markerHeight="10.550836550532098" viewBox="-1.0 -1.3763819204711736 16.23606797749979 10.550836550532098" refX="-1.0" refY="3.8990363547948754"><path id="ProcessOnPath1114" d="M12.0 3.8990363547948754L0.0 7.798072709589751V0.0Z" stroke="#323232" stroke-width="2.0" fill="#323232" transform="matrix(1.0,0.0,0.0,1.0,0.0,0.0)"/></marker><marker id="ProcessOnMarker1125" markerUnits="userSpaceOnUse" orient="auto" markerWidth="16.23606797749979" markerHeight="10.550836550532098" viewBox="-1.0 -1.3763819204711736 16.23606797749979 10.550836550532098" refX="-1.0" refY="3.8990363547948754"><path id="ProcessOnPath1126" d="M12.0 3.8990363547948754L0.0 7.798072709589751V0.0Z" stroke="#323232" stroke-width="2.0" fill="#323232" transform="matrix(1.0,0.0,0.0,1.0,0.0,0.0)"/></marker><marker id="ProcessOnMarker1129" markerUnits="userSpaceOnUse" orient="auto" markerWidth="16.23606797749979" markerHeight="10.550836550532098" viewBox="-1.0 -1.3763819204711736 16.23606797749979 10.550836550532098" refX="-1.0" refY="3.8990363547948754"><path id="ProcessOnPath1130" d="M12.0 3.8990363547948754L0.0 7.798072709589751V0.0Z" stroke="#323232" stroke-width="2.0" fill="#323232" transform="matrix(1.0,0.0,0.0,1.0,0.0,0.0)"/></marker><marker id="ProcessOnMarker1133" markerUnits="userSpaceOnUse" orient="auto" markerWidth="16.23606797749979" markerHeight="10.550836550532098" viewBox="-1.0 -1.3763819204711736 16.23606797749979 10.550836550532098" refX="-1.0" refY="3.8990363547948754"><path id="ProcessOnPath1134" d="M12.0 3.8990363547948754L0.0 7.798072709589751V0.0Z" stroke="#323232" stroke-width="2.0" fill="#323232" transform="matrix(1.0,0.0,0.0,1.0,0.0,0.0)"/></marker></defs><g id="ProcessOnG1002"><path id="ProcessOnPath1003" d="M273.2500000000001 56.0H1042.75V976.5H273.2500000000001V56.0Z" fill="none"/><g id="ProcessOnG1004"><g id="ProcessOnG1005" transform="matrix(1.0,0.0,0.0,1.0,529.0,76.0)" opacity="1.0"><path id="ProcessOnPath1006" d="M16.666666666666668 0.0L83.33333333333333 0.0C105.55555555555556 0.0 105.55555555555556 50.0 83.33333333333333 50.0L16.666666666666668 50.0C-5.555555555555556 50.0 -5.555555555555556 0.0 16.666666666666668 0.0Z" stroke="#323232" stroke-width="2.0" stroke-dasharray="none" fill="#f5927b"/><g id="ProcessOnG1007" transform="matrix(1.0,0.0,0.0,1.0,10.0,16.875)"><text id="ProcessOnText1008" fill="#323232" font-size="13" x="39.0" y="13.325" font-family="Arial" font-weight="normal" font-style="normal" text-decoration="none" family="Arial" text-anchor="middle" size="13">开始</text></g></g><g id="ProcessOnG1009" transform="matrix(1.0,0.0,0.0,1.0,515.3333333333333,164.0)" opacity="1.0"><path id="ProcessOnPath1010" d="M0.0 0.0L127.33333333333348 0.0L127.33333333333348 43.0L0.0 43.0Z" stroke="#323232" stroke-width="2.0" stroke-dasharray="none" fill="#ffffcc"/><g id="ProcessOnG1011" transform="matrix(1.0,0.0,0.0,1.0,10.0,13.375)"><text id="ProcessOnText1012" fill="#323232" font-size="13" x="52.66666666666674" y="13.325" font-family="Arial" font-weight="normal" font-style="normal" text-decoration="none" family="Arial" text-anchor="middle" size="13">python app.py run</text></g></g><g id="ProcessOnG1013" transform="matrix(1.0,0.0,0.0,1.0,500.91666666666663,485.0)" opacity="1.0"><path id="ProcessOnPath1014" d="M0.0 0.0L157.5 0.0L157.5 46.0L0.0 46.0Z" stroke="#323232" stroke-width="2.0" stroke-dasharray="none" fill="#ffffcc"/><g id="ProcessOnG1015" transform="matrix(1.0,0.0,0.0,1.0,10.0,6.75)"><text id="ProcessOnText1016" fill="#323232" font-size="13" x="67.75" y="13.325" font-family="Arial" font-weight="normal" font-style="normal" text-decoration="none" family="Arial" text-anchor="middle" size="13">Thread (Server)</text><text id="ProcessOnText1017" fill="#323232" font-size="13" x="67.75" y="29.575" font-family="Arial" font-weight="normal" font-style="normal" text-decoration="none" family="Arial" text-anchor="middle" size="13">`srv.serve_forever()`</text></g></g><g id="ProcessOnG1018"><path id="ProcessOnPath1019" d="M579.0 126.0L579.0 145.0L579.0 145.0L579.0 148.7639320225002" stroke="#323232" stroke-width="2.0" stroke-dasharray="none" fill="none" marker-end="url(#ProcessOnMarker1020)"/></g><g id="ProcessOnG1022" transform="matrix(1.0,0.0,0.0,1.0,500.91666666666663,555.5)" opacity="1.0"><path id="ProcessOnPath1023" d="M0.0 0.0L157.5 0.0L157.5 46.0L0.0 46.0Z" stroke="#323232" stroke-width="2.0" stroke-dasharray="none" fill="#ffffcc"/><g id="ProcessOnG1024" transform="matrix(1.0,0.0,0.0,1.0,10.0,14.875)"><text id="ProcessOnText1025" fill="#323232" font-size="13" x="67.75" y="13.325" font-family="Arial" font-weight="normal" font-style="normal" text-decoration="none" family="Arial" text-anchor="middle" size="13">reloader.run()</text></g></g><g id="ProcessOnG1026"><path id="ProcessOnPath1027" d="M579.6666666666666 531.0L579.6666666666666 543.25L579.6666666666666 543.25L579.6666666666666 544.25" stroke="#323232" stroke-width="2.0" stroke-dasharray="none" fill="none" marker-end="url(#ProcessOnMarker1028)"/></g><g id="ProcessOnG1030" transform="matrix(1.0,0.0,0.0,1.0,524.6666666666666,635.5)" opacity="1.0"><path id="ProcessOnPath1031" d="M0.0 36.0L55.0 0.0L110.0 36.0L55.0 72.0L0.0 36.0Z" stroke="#323232" stroke-width="2.0" stroke-dasharray="none" fill="#ffe6cc"/><g id="ProcessOnG1032" transform="matrix(1.0,0.0,0.0,1.0,10.0,27.875)"><text id="ProcessOnText1033" fill="#323232" font-size="13" x="44.0" y="13.325" font-family="Arial" font-weight="normal" font-style="normal" text-decoration="none" family="Arial" text-anchor="middle" size="13">while 1:</text></g></g><g id="ProcessOnG1034"><path id="ProcessOnPath1035" d="M579.6666666666666 601.5L579.6666666666666 618.5L579.6666666666666 618.5L579.6666666666666 620.2639320225002" stroke="#323232" stroke-width="2.0" stroke-dasharray="none" fill="none" marker-end="url(#ProcessOnMarker1036)"/></g><g id="ProcessOnG1038" transform="matrix(1.0,0.0,0.0,1.0,524.6666666666666,732.5)" opacity="1.0"><path id="ProcessOnPath1039" d="M0.0 36.0L55.0 0.0L110.0 36.0L55.0 72.0L0.0 36.0Z" stroke="#323232" stroke-width="2.0" stroke-dasharray="none" fill="#ffe6cc"/><g id="ProcessOnG1040" transform="matrix(1.0,0.0,0.0,1.0,10.0,27.875)"><text id="ProcessOnText1041" fill="#323232" font-size="13" x="44.0" y="13.325" font-family="Arial" font-weight="normal" font-style="normal" text-decoration="none" family="Arial" text-anchor="middle" size="13">是否有文件被编辑?</text></g></g><g id="ProcessOnG1042"><path id="ProcessOnPath1043" d="M579.6666666666666 707.5L579.6666666666666 720.0L579.6666666666666 720.0L579.6666666666666 721.0" stroke="#323232" stroke-width="2.0" stroke-dasharray="none" fill="none" marker-end="url(#ProcessOnMarker1044)"/></g><g id="ProcessOnG1046" transform="matrix(1.0,0.0,0.0,1.0,293.2500000000001,745.5)" opacity="1.0"><path id="ProcessOnPath1047" d="M0.0 0.0L157.5 0.0L157.5 46.0L0.0 46.0Z" stroke="#323232" stroke-width="2.0" stroke-dasharray="none" fill="#ffffcc"/><g id="ProcessOnG1048" transform="matrix(1.0,0.0,0.0,1.0,10.0,14.875)"><text id="ProcessOnText1049" fill="#323232" font-size="13" x="67.75" y="13.325" font-family="Arial" font-weight="normal" font-style="normal" text-decoration="none" family="Arial" text-anchor="middle" size="13">sleep(1)</text></g></g><g id="ProcessOnG1050"><path id="ProcessOnPath1051" d="M524.6666666666666 768.5L487.7083333333333 768.5L487.7083333333333 768.5L465.9860679774998 768.5" stroke="#323232" stroke-width="2.0" stroke-dasharray="none" fill="none" marker-end="url(#ProcessOnMarker1052)"/><g id="ProcessOnG1054" transform="matrix(1.0,0.0,0.0,1.0,495.32636732208323,760.375)"><path id="ProcessOnPath1055" d="M0 0H10.0V16.25H0Z" fill="#fff" transform="matrix(1.0,0.0,0.0,1.0,-5.0,0.0)"/><text id="ProcessOnText1056" fill="#323232" font-size="13" x="0.0" y="13.325" font-family="Arial" font-weight="normal" font-style="normal" text-decoration="none" family="Arial" text-anchor="middle" size="13">否</text></g></g><g id="ProcessOnG1057" transform="matrix(1.0,0.0,0.0,1.0,835.25,745.5)" opacity="1.0"><path id="ProcessOnPath1058" d="M0.0 0.0L157.5 0.0L157.5 46.0L0.0 46.0Z" stroke="#323232" stroke-width="2.0" stroke-dasharray="none" fill="#ffffcc"/><g id="ProcessOnG1059" transform="matrix(1.0,0.0,0.0,1.0,10.0,14.875)"><text id="ProcessOnText1060" fill="#323232" font-size="13" x="67.75" y="13.325" font-family="Arial" font-weight="normal" font-style="normal" text-decoration="none" family="Arial" text-anchor="middle" size="13">sys.exist(3)</text></g></g><g id="ProcessOnG1061"><path id="ProcessOnPath1062" d="M634.6666666666666 768.5L734.9583333333333 768.5L734.9583333333333 768.5L820.0139320225002 768.5" stroke="#323232" stroke-width="2.0" stroke-dasharray="none" fill="none" marker-end="url(#ProcessOnMarker1063)"/><g id="ProcessOnG1065" transform="matrix(1.0,0.0,0.0,1.0,727.3402993445834,760.375)"><path id="ProcessOnPath1066" d="M0 0H10.0V16.25H0Z" fill="#fff" transform="matrix(1.0,0.0,0.0,1.0,-5.0,0.0)"/><text id="ProcessOnText1067" fill="#323232" font-size="13" x="0.0" y="13.325" font-family="Arial" font-weight="normal" font-style="normal" text-decoration="none" family="Arial" text-anchor="middle" size="13">是</text></g></g><g id="ProcessOnG1068" transform="matrix(1.0,0.0,0.0,1.0,504.3333333333333,320.5)" opacity="1.0"><path id="ProcessOnPath1069" d="M0.0 34.75L74.66666666666669 0.0L149.33333333333337 34.75L74.66666666666669 69.5L0.0 34.75Z" stroke="#323232" stroke-width="2.0" stroke-dasharray="none" fill="#ffe6cc"/><g id="ProcessOnG1070" transform="matrix(1.0,0.0,0.0,1.0,10.0,26.625)"><text id="ProcessOnText1071" fill="#323232" font-size="13" x="63.666666666666686" y="13.325" font-family="Arial" font-weight="normal" font-style="normal" text-decoration="none" family="Arial" text-anchor="middle" size="13">WERKZ_RUN_MAIN</text></g></g><g id="ProcessOnG1072"><path id="ProcessOnPath1073" d="M579.0 207.0L579.0 263.75L579.0000000000001 263.75L579.0000000000001 305.2639320225002" stroke="#323232" stroke-width="2.0" stroke-dasharray="none" fill="none" marker-end="url(#ProcessOnMarker1074)"/></g><g id="ProcessOnG1076"><path id="ProcessOnPath1077" d="M579.0 390.0L579.0 437.5L579.6666666666666 437.5L579.6666666666666 469.7639320225002" stroke="#323232" stroke-width="2.0" stroke-dasharray="none" fill="none" marker-end="url(#ProcessOnMarker1078)"/><g id="ProcessOnG1080" transform="matrix(1.0,0.0,0.0,1.0,579.0,422.0902993445834)"><path id="ProcessOnPath1081" d="M0 0H22.0V16.25H0Z" fill="#fff" transform="matrix(1.0,0.0,0.0,1.0,-11.0,0.0)"/><text id="ProcessOnText1082" fill="#323232" font-size="13" x="0.0" y="13.325" font-family="Arial" font-weight="normal" font-style="normal" text-decoration="none" family="Arial" text-anchor="middle" size="13">true</text></g></g><g id="ProcessOnG1083"><path id="ProcessOnPath1084" d="M653.6666666666667 355.25L696.3333333333334 355.25L696.3333333333334 355.25L723.7639320225002 355.25" stroke="#323232" stroke-width="2.0" stroke-dasharray="none" fill="none" marker-end="url(#ProcessOnMarker1085)"/><g id="ProcessOnG1087" transform="matrix(1.0,0.0,0.0,1.0,688.7152993445834,347.125)"><path id="ProcessOnPath1088" d="M0 0H20.0V16.25H0Z" fill="#fff" transform="matrix(1.0,0.0,0.0,1.0,-10.0,0.0)"/><text id="ProcessOnText1089" fill="#323232" font-size="13" x="0.0" y="13.325" font-family="Arial" font-weight="normal" font-style="normal" text-decoration="none" family="Arial" text-anchor="middle" size="13">为空</text></g></g><g id="ProcessOnG1090" transform="matrix(1.0,0.0,0.0,1.0,794.0,165.5)" opacity="1.0"><path id="ProcessOnPath1091" d="M0.0 0.0L148.0000000000001 0.0L148.0000000000001 40.0L0.0 40.0Z" stroke="#323232" stroke-width="2.0" stroke-dasharray="none" fill="#ffffcc"/><g id="ProcessOnG1092" transform="matrix(1.0,0.0,0.0,1.0,10.0,3.75)"><text id="ProcessOnText1093" fill="#323232" font-size="13" x="63.00000000000006" y="13.325" font-family="Arial" font-weight="normal" font-style="normal" text-decoration="none" family="Arial" text-anchor="middle" size="13">subprocess </text><text id="ProcessOnText1094" fill="#323232" font-size="13" x="63.00000000000006" y="29.575" font-family="Arial" font-weight="normal" font-style="normal" text-decoration="none" family="Arial" text-anchor="middle" size="13">`python app.py run`</text></g></g><g id="ProcessOnG1095"><path id="ProcessOnPath1096" d="M794.0 185.5L718.3333333333334 185.5L718.3333333333334 185.5L657.9027346441666 185.5" stroke="#323232" stroke-width="2.0" stroke-dasharray="none" fill="none" marker-end="url(#ProcessOnMarker1097)"/></g><g id="ProcessOnG1099"><path id="ProcessOnPath1100" d="M372.0000000000001 745.5L372.0000000000001 671.5L509.43059868916686 671.5" stroke="#323232" stroke-width="2.0" stroke-dasharray="none" fill="none" marker-end="url(#ProcessOnMarker1101)"/></g><g id="ProcessOnG1103" transform="matrix(1.0,0.0,0.0,1.0,499.25,831.5)" opacity="1.0"><path id="ProcessOnPath1104" d="M0.0 0.0L157.5 0.0L157.5 46.0L0.0 46.0Z" stroke="#323232" stroke-width="2.0" stroke-dasharray="none" fill="#ffffcc"/><g id="ProcessOnG1105" transform="matrix(1.0,0.0,0.0,1.0,10.0,14.875)"><text id="ProcessOnText1106" fill="#323232" font-size="13" x="67.75" y="13.325" font-family="Arial" font-weight="normal" font-style="normal" text-decoration="none" family="Arial" text-anchor="middle" size="13">Ctrl - c</text></g></g><g id="ProcessOnG1107" transform="matrix(1.0,0.0,0.0,1.0,528.0,906.5)" opacity="1.0"><path id="ProcessOnPath1108" d="M16.666666666666668 0.0L83.33333333333333 0.0C105.55555555555556 0.0 105.55555555555556 50.0 83.33333333333333 50.0L16.666666666666668 50.0C-5.555555555555556 50.0 -5.555555555555556 0.0 16.666666666666668 0.0Z" stroke="#323232" stroke-width="2.0" stroke-dasharray="none" fill="#f5927b"/><g id="ProcessOnG1109" transform="matrix(1.0,0.0,0.0,1.0,10.0,16.875)"><text id="ProcessOnText1110" fill="#323232" font-size="13" x="39.0" y="13.325" font-family="Arial" font-weight="normal" font-style="normal" text-decoration="none" family="Arial" text-anchor="middle" size="13">结束</text></g></g><g id="ProcessOnG1111"><path id="ProcessOnPath1112" d="M578.0 877.5L578.0 892.0L578.0 892.0L578.0 893.0" stroke="#323232" stroke-width="2.0" stroke-dasharray="none" fill="none" marker-end="url(#ProcessOnMarker1113)"/></g><g id="ProcessOnG1115" transform="matrix(1.0,0.0,0.0,1.0,813.0,235.5)" opacity="1.0"><path id="ProcessOnPath1116" d="M0.0 36.0L55.0 0.0L110.0 36.0L55.0 72.0L0.0 36.0Z" stroke="#323232" stroke-width="2.0" stroke-dasharray="none" fill="#ffe6cc"/><g id="ProcessOnG1117" transform="matrix(1.0,0.0,0.0,1.0,10.0,27.875)"><text id="ProcessOnText1118" fill="#323232" font-size="13" x="44.0" y="13.325" font-family="Arial" font-weight="normal" font-style="normal" text-decoration="none" family="Arial" text-anchor="middle" size="13">while 1:</text></g></g><g id="ProcessOnG1119" transform="matrix(1.0,0.0,0.0,1.0,739.0,336.5)" opacity="1.0"><path id="ProcessOnPath1120" d="M0.0 0.0L258.0 0.0L258.0 37.5L0.0 37.5Z" stroke="#323232" stroke-width="2.0" stroke-dasharray="none" fill="#ffffcc"/><g id="ProcessOnG1121" transform="matrix(1.0,0.0,0.0,1.0,10.0,10.625)"><text id="ProcessOnText1122" fill="#323232" font-size="13" x="118.0" y="13.325" font-family="Arial" font-weight="normal" font-style="normal" text-decoration="none" family="Arial" text-anchor="middle" size="13">sys.exit(reloader.restart_with_reloader())</text></g></g><g id="ProcessOnG1123"><path id="ProcessOnPath1124" d="M868.0 336.5L868.0 322.0L868.0 322.0L868.0 321.0" stroke="#323232" stroke-width="2.0" stroke-dasharray="none" fill="none" marker-end="url(#ProcessOnMarker1125)"/></g><g id="ProcessOnG1127"><path id="ProcessOnPath1128" d="M868.0 235.5L868.0 220.5L868.0 220.5L868.0 219.5" stroke="#323232" stroke-width="2.0" stroke-dasharray="none" fill="none" marker-end="url(#ProcessOnMarker1129)"/></g><g id="ProcessOnG1131"><path id="ProcessOnPath1132" d="M992.75 768.5L1022.75 768.5L1022.75 271.5L938.2360679774998 271.5" stroke="#323232" stroke-width="2.0" stroke-dasharray="none" fill="none" marker-end="url(#ProcessOnMarker1133)"/></g></g></g></svg>