<?xml version="1.0" encoding="UTF-8" standalone="no"?>
<!DOCTYPE svg PUBLIC "-//W3C//DTD SVG 1.1//EN" "http://www.w3.org/Graphics/SVG/1.1/DTD/svg11.dtd">
<svg xmlns="http://www.w3.org/2000/svg" version="1.1" xmlns:dc="http://purl.org/dc/elements/1.1/" xmlns:xl="http://www.w3.org/1999/xlink" viewBox="172.5 501.5 1094.605 145" width="1094.605" height="145">
  <defs/>
  <g id="Canvas____taobao" stroke-opacity="1" stroke="none" stroke-dasharray="none" fill="none" fill-opacity="1">
    <title>软路由 taobao</title>
    <rect fill="white" x="172.5" y="501.5" width="1094.605" height="145"/>
    <g id="Canvas____taobao_Layer_1">
      <title>Layer 1</title>
      <g id="Graphic_6">
        <rect x="340.5" y="512" width="280" height="124" fill="#ebebeb"/>
        <rect x="340.5" y="512" width="280" height="124" stroke="gray" stroke-linecap="round" stroke-linejoin="round" stroke-width="1"/>
        <text transform="translate(345.5 517)" fill="black">
          <tspan font-family="PingFang SC" font-size="16" fill="black" x="0" y="17">弱电箱</tspan>
        </text>
      </g>
      <g id="Graphic_5">
        <rect x="437" y="535.75" width="161.75" height="76.5" fill="white"/>
        <rect x="437" y="535.75" width="161.75" height="76.5" stroke="gray" stroke-linecap="round" stroke-linejoin="round" stroke-width="1"/>
        <text transform="translate(442 547)" fill="black">
          <tspan font-family="PingFang SC" font-size="14" fill="black" x="47.875" y="15">电信光猫</tspan>
          <tspan font-family="PingFang SC" font-size="12" fill="black" x="47.099" y="33">192.168.1.1 </tspan>
          <tspan font-family="PingFang SC" font-size="12" fill="black" x="35.123" y="50">255.255.255.0</tspan>
        </text>
      </g>
      <g id="Graphic_4">
        <text transform="translate(361 578.98026)" fill="black">
          <tspan font-family="PingFang SC" font-size="12" fill="black" x="0" y="13">光纤入户</tspan>
        </text>
      </g>
      <g id="Graphic_3">
        <path d="M 198.44884 576.6721 C 179.29688 574 186.9342 551.50554 217.48587 555.34375 C 220.3204 547.86185 255.84788 549.07624 255.6156 555.34375 C 277.89243 547.3275 306.36087 563.3117 287.26578 571.3279 C 310.17894 575.2144 286.97664 596.1542 268.17188 592.65625 C 266.66692 598.48645 233.04966 600.5267 230.099 592.65625 C 211.06317 601.0615 171.3704 588.13796 198.44884 576.6721 Z" fill="white"/>
        <path d="M 198.44884 576.6721 C 179.29688 574 186.9342 551.50554 217.48587 555.34375 C 220.3204 547.86185 255.84788 549.07624 255.6156 555.34375 C 277.89243 547.3275 306.36087 563.3117 287.26578 571.3279 C 310.17894 575.2144 286.97664 596.1542 268.17188 592.65625 C 266.66692 598.48645 233.04966 600.5267 230.099 592.65625 C 211.06317 601.0615 171.3704 588.13796 198.44884 576.6721 Z" stroke="gray" stroke-linecap="round" stroke-linejoin="round" stroke-width="1"/>
        <text transform="translate(205.775 563)" fill="black">
          <tspan font-family="PingFang SC" font-size="16" fill="black" x="8.154998" y="17">Internet</tspan>
        </text>
      </g>
      <g id="Line_2">
        <line x1="294.521" y1="574" x2="437" y2="574" stroke="black" stroke-linecap="round" stroke-linejoin="round" stroke-width="1"/>
      </g>
      <g id="Graphic_7">
        <rect x="679.625" y="548.0724" width="161.75" height="51.855263" fill="#c0ffc0"/>
        <rect x="679.625" y="548.0724" width="161.75" height="51.855263" stroke="gray" stroke-linecap="round" stroke-linejoin="round" stroke-width="1"/>
        <text transform="translate(684.625 555.5)" fill="black">
          <tspan font-family="PingFang SC" font-size="14" fill="black" x="38.908" y="15">R2S 软路由</tspan>
          <tspan font-family="PingFang SC" font-size="12" fill="black" x="53.879" y="33">(主路由)</tspan>
        </text>
      </g>
      <g id="Line_8">
        <line x1="598.75" y1="574" x2="679.625" y2="574" stroke="black" stroke-linecap="round" stroke-linejoin="round" stroke-width="1"/>
      </g>
      <g id="Graphic_9">
        <rect x="940.054" y="548.0724" width="161.75" height="51.855263" fill="white"/>
        <rect x="940.054" y="548.0724" width="161.75" height="51.855263" stroke="gray" stroke-linecap="round" stroke-linejoin="round" stroke-width="1"/>
        <text transform="translate(945.054 564)" fill="black">
          <tspan font-family="PingFang SC" font-size="14" fill="black" x="47.875" y="15">无线路由</tspan>
        </text>
      </g>
      <g id="Graphic_10">
        <text transform="translate(649.551 557.125)" fill="black">
          <tspan font-family="PingFang SC" font-size="12" fill="black" x="0" y="13">wan</tspan>
        </text>
      </g>
      <g id="Graphic_11">
        <text transform="translate(848.973 557.125)" fill="black">
          <tspan font-family="PingFang SC" font-size="12" fill="black" x="39257486e-20" y="13">lan</tspan>
        </text>
      </g>
      <g id="Line_12">
        <line x1="841.375" y1="574" x2="940.054" y2="574" stroke="black" stroke-linecap="round" stroke-linejoin="round" stroke-width="1"/>
      </g>
      <g id="Graphic_13">
        <text transform="translate(912.578 557.125)" fill="black">
          <tspan font-family="PingFang SC" font-size="12" fill="black" x="0" y="13">wan</tspan>
        </text>
      </g>
      <g id="Line_15">
        <line x1="1101.804" y1="574" x2="1170.605" y2="574" stroke="black" stroke-linecap="round" stroke-linejoin="round" stroke-width="1"/>
      </g>
      <g id="Graphic_16">
        <rect x="1170.605" y="560.5" width="86" height="27" fill="white"/>
        <rect x="1170.605" y="560.5" width="86" height="27" stroke="gray" stroke-linecap="round" stroke-linejoin="round" stroke-width="1"/>
        <text transform="translate(1175.605 564)" fill="black">
          <tspan font-family="PingFang SC" font-size="14" fill="black" x="17" y="15">子设备</tspan>
        </text>
      </g>
      <g id="Graphic_17">
        <rect x="1170.605" y="519.5" width="86" height="27" fill="white"/>
        <rect x="1170.605" y="519.5" width="86" height="27" stroke="gray" stroke-linecap="round" stroke-linejoin="round" stroke-width="1"/>
        <text transform="translate(1175.605 523)" fill="black">
          <tspan font-family="PingFang SC" font-size="14" fill="black" x="17" y="15">子设备</tspan>
        </text>
      </g>
      <g id="Graphic_18">
        <rect x="1170.605" y="601.5" width="86" height="27" fill="white"/>
        <rect x="1170.605" y="601.5" width="86" height="27" stroke="gray" stroke-linecap="round" stroke-linejoin="round" stroke-width="1"/>
        <text transform="translate(1175.605 605)" fill="black">
          <tspan font-family="PingFang SC" font-size="14" fill="black" x="17" y="15">子设备</tspan>
        </text>
      </g>
      <g id="Line_19">
        <path d="M 1101.804 574 L 1136.2045 574 L 1136.2045 533 L 1170.605 533" stroke="black" stroke-linecap="round" stroke-linejoin="round" stroke-width="1"/>
      </g>
      <g id="Line_20">
        <path d="M 1101.804 574 L 1136.2045 574 L 1136.2045 615 L 1170.605 615" stroke="black" stroke-linecap="round" stroke-linejoin="round" stroke-width="1"/>
      </g>
    </g>
  </g>
</svg>
