<?xml version="1.0" encoding="UTF-8" standalone="no"?>
<!DOCTYPE svg PUBLIC "-//W3C//DTD SVG 1.1//EN" "http://www.w3.org/Graphics/SVG/1.1/DTD/svg11.dtd">
<svg xmlns="http://www.w3.org/2000/svg" version="1.1" xmlns:dc="http://purl.org/dc/elements/1.1/" xmlns:xl="http://www.w3.org/1999/xlink" viewBox="-117 683.5 656.5 398.5" width="656.5" height="398.5">
  <defs>
    <marker orient="auto" overflow="visible" markerUnits="strokeWidth" id="FilledArrow_Marker" stroke-linejoin="miter" stroke-miterlimit="10" viewBox="-1 -4 10 8" markerWidth="10" markerHeight="8" color="black">
      <g>
        <path d="M 8 0 L 0 -3 L 0 3 Z" fill="currentColor" stroke="currentColor" stroke-width="1"/>
      </g>
    </marker>
    <marker orient="auto" overflow="visible" markerUnits="strokeWidth" id="FilledArrow_Marker_2" stroke-linejoin="miter" stroke-miterlimit="10" viewBox="-1 -4 10 8" markerWidth="10" markerHeight="8" color="black">
      <g>
        <path d="M 8 0 L 0 -3 L 0 3 Z" fill="currentColor" stroke="currentColor" stroke-width="1"/>
      </g>
    </marker>
  </defs>
  <g id="home_dashboard" stroke-opacity="1" stroke="none" stroke-dasharray="none" fill="none" fill-opacity="1">
    <title>home dashboard</title>
    <rect fill="white" x="-117" y="683.5" width="656.5" height="398.5"/>
    <g id="home_dashboard_Layer_1">
      <title>Layer 1</title>
      <g id="Graphic_3">
        <rect x="-17.5" y="937" width="250.5" height="78.5" fill="#ebebeb"/>
        <rect x="-17.5" y="937" width="250.5" height="78.5" stroke="gray" stroke-linecap="round" stroke-linejoin="round" stroke-width="1"/>
        <text transform="translate(-12.5 942)" fill="black">
          <tspan font-family="Helvetica Neue" font-size="14" fill="black" x="64.88" y="15">OpenWrt</tspan>
          <tspan font-family="PingFang SC" font-size="14" fill="black" y="15">（R2S）</tspan>
        </text>
      </g>
      <g id="Graphic_5">
        <rect x="32.82392" y="974.5" width="143.17608" height="32" fill="white"/>
        <rect x="32.82392" y="974.5" width="143.17608" height="32" stroke="gray" stroke-linecap="round" stroke-linejoin="round" stroke-width="1"/>
        <text transform="translate(37.82392 983.332)" fill="black">
          <tspan font-family="Helvetica Neue" font-size="12" fill="black" x="27.588043" y="11">node_exporter</tspan>
        </text>
      </g>
      <g id="Graphic_6">
        <rect x="256.32392" y="937" width="250.5" height="134.5" fill="#ebebeb"/>
        <rect x="256.32392" y="937" width="250.5" height="134.5" stroke="gray" stroke-linecap="round" stroke-linejoin="round" stroke-width="1"/>
        <text transform="translate(261.32392 942)" fill="black">
          <tspan font-family="Helvetica Neue" font-size="14" fill="black" x="71.768" y="13">HA Integrations</tspan>
        </text>
      </g>
      <g id="Graphic_8">
        <rect x="276.82392" y="974.5" width="106.5" height="32" fill="white"/>
        <rect x="276.82392" y="974.5" width="106.5" height="32" stroke="gray" stroke-linecap="round" stroke-linejoin="round" stroke-width="1"/>
        <text transform="translate(281.82392 983.332)" fill="black">
          <tspan font-family="Helvetica Neue" font-size="12" fill="black" x="5.458" y="11">system_monitor</tspan>
        </text>
      </g>
      <g id="Graphic_9">
        <rect x="400.8239" y="974.5" width="91.5" height="32" fill="white"/>
        <rect x="400.8239" y="974.5" width="91.5" height="32" stroke="gray" stroke-linecap="round" stroke-linejoin="round" stroke-width="1"/>
        <text transform="translate(405.8239 983.332)" fill="black">
          <tspan font-family="Helvetica Neue" font-size="12" fill="black" x="3.304" y="11">binary_sensor</tspan>
        </text>
      </g>
      <g id="Graphic_10">
        <rect x="-17.5" y="694" width="524.3239" height="190.75" fill="#ebebeb"/>
        <rect x="-17.5" y="694" width="524.3239" height="190.75" stroke="gray" stroke-linecap="round" stroke-linejoin="round" stroke-width="1"/>
        <text transform="translate(-12.5 699)" fill="black">
          <tspan font-family="Helvetica Neue" font-size="14" fill="black" x="218.26996" y="15">HA</tspan>
          <tspan font-family="PingFang SC" font-size="14" fill="black" y="15"> </tspan>
          <tspan font-family="Helvetica Neue" font-size="14" fill="black" y="15">Add-ons</tspan>
        </text>
      </g>
      <g id="Graphic_11">
        <rect x="284.32392" y="1027" width="106.5" height="32" fill="white"/>
        <rect x="284.32392" y="1027" width="106.5" height="32" stroke="gray" stroke-linecap="round" stroke-linejoin="round" stroke-width="1"/>
        <text transform="translate(289.32392 1035.832)" fill="black">
          <tspan font-family="Helvetica Neue" font-size="12" fill="black" x="16.576" y="11">xiaomi-miot</tspan>
        </text>
      </g>
      <g id="Graphic_12">
        <path d="M 327.42603 863.6988 L 327.42603 832.6332 C 327.42603 830.4897 351.6843 828.75 381.5739 828.75 C 411.46355 828.75 435.7218 830.4897 435.7218 832.6332 L 435.7218 863.6988 C 435.7218 865.8423 411.46355 867.582 381.5739 867.582 C 351.6843 867.582 327.42603 865.8423 327.42603 863.6988" fill="white"/>
        <path d="M 327.42603 863.6988 L 327.42603 832.6332 C 327.42603 830.4897 351.6843 828.75 381.5739 828.75 C 411.46355 828.75 435.7218 830.4897 435.7218 832.6332 L 435.7218 863.6988 C 435.7218 865.8423 411.46355 867.582 381.5739 867.582 C 351.6843 867.582 327.42603 865.8423 327.42603 863.6988 M 327.42603 832.6332 C 327.42603 834.7767 351.6843 836.5164 381.5739 836.5164 C 411.46355 836.5164 435.7218 834.7767 435.7218 832.6332" stroke="gray" stroke-linecap="round" stroke-linejoin="round" stroke-width="1"/>
        <text transform="translate(332.42603 842.9396)" fill="black">
          <tspan font-family="Helvetica Neue" font-size="12" fill="black" x="26.371888" y="11">InfluxDB</tspan>
        </text>
      </g>
      <g id="Graphic_13">
        <path d="M 51.96127 863.6988 L 51.96127 832.6332 C 51.96127 830.4897 76.95462 828.75 107.75 828.75 C 138.54538 828.75 163.53873 830.4897 163.53873 832.6332 L 163.53873 863.6988 C 163.53873 865.8423 138.54538 867.582 107.75 867.582 C 76.95462 867.582 51.96127 865.8423 51.96127 863.6988" fill="white"/>
        <path d="M 51.96127 863.6988 L 51.96127 832.6332 C 51.96127 830.4897 76.95462 828.75 107.75 828.75 C 138.54538 828.75 163.53873 830.4897 163.53873 832.6332 L 163.53873 863.6988 C 163.53873 865.8423 138.54538 867.582 107.75 867.582 C 76.95462 867.582 51.96127 865.8423 51.96127 863.6988 M 51.96127 832.6332 C 51.96127 834.7767 76.95462 836.5164 107.75 836.5164 C 138.54538 836.5164 163.53873 834.7767 163.53873 832.6332" stroke="gray" stroke-linecap="round" stroke-linejoin="round" stroke-width="1"/>
        <text transform="translate(56.96127 842.9396)" fill="black">
          <tspan font-family="Helvetica Neue" font-size="12" fill="black" x="18.44273" y="11">Prometheus</tspan>
        </text>
      </g>
      <g id="Line_20">
        <line x1="-106.5" y1="910.375" x2="529" y2="910.375" stroke="black" stroke-linecap="round" stroke-linejoin="round" stroke-dasharray="8.0,5.0" stroke-width="1"/>
      </g>
      <g id="Line_26">
        <line x1="381.5739" y1="937" x2="381.5739" y2="877.482" marker-end="url(#FilledArrow_Marker)" stroke="black" stroke-linecap="round" stroke-linejoin="round" stroke-width="1"/>
      </g>
      <g id="Line_27">
        <line x1="107.75" y1="937" x2="107.75" y2="877.482" marker-end="url(#FilledArrow_Marker)" stroke="black" stroke-linecap="round" stroke-linejoin="round" stroke-width="1"/>
      </g>
      <g id="Graphic_29">
        <rect x="85.42254" y="731.6875" width="147.57746" height="32" fill="white"/>
        <rect x="85.42254" y="731.6875" width="147.57746" height="32" stroke="gray" stroke-linecap="round" stroke-linejoin="round" stroke-width="1"/>
        <text transform="translate(90.42254 740.5195)" fill="black">
          <tspan font-family="Helvetica Neue" font-size="12" fill="black" x="47.458734" y="11">Grafana</tspan>
        </text>
      </g>
      <g id="Graphic_33">
        <text transform="translate(-101.5 966.25)" fill="black">
          <tspan font-family="PingFang SC" font-size="14" fill="black" x="0" y="15">数据收集</tspan>
        </text>
      </g>
      <g id="Graphic_34">
        <text transform="translate(-101.5 829.8125)" fill="black">
          <tspan font-family="PingFang SC" font-size="14" fill="black" x="0" y="15">数据存储</tspan>
        </text>
      </g>
      <g id="Graphic_35">
        <text transform="translate(-101.5 736.6875)" fill="black">
          <tspan font-family="PingFang SC" font-size="14" fill="black" x="0" y="15">数据展示</tspan>
        </text>
      </g>
      <g id="Line_37">
        <path d="M 107.75 828.75 L 107.75 812.4766 L 159.21127 812.4766 L 159.21127 773.5875" marker-end="url(#FilledArrow_Marker_2)" stroke="black" stroke-linecap="round" stroke-linejoin="round" stroke-width="1"/>
      </g>
      <g id="Line_38">
        <path d="M 381.5739 828.75 L 381.5739 812.6172 L 159.21127 812.6172 L 159.21127 773.5875" marker-end="url(#FilledArrow_Marker_2)" stroke="black" stroke-linecap="round" stroke-linejoin="round" stroke-width="1"/>
      </g>
      <g id="Line_43">
        <line x1="-106.5" y1="793.75" x2="529" y2="793.75" stroke="black" stroke-linecap="round" stroke-linejoin="round" stroke-dasharray="8.0,5.0" stroke-width="1"/>
      </g>
    </g>
  </g>
</svg>
