<?xml version="1.0" encoding="UTF-8" standalone="no"?>
<!DOCTYPE svg PUBLIC "-//W3C//DTD SVG 1.1//EN" "http://www.w3.org/Graphics/SVG/1.1/DTD/svg11.dtd">
<svg xmlns="http://www.w3.org/2000/svg" version="1.1" xmlns:dc="http://purl.org/dc/elements/1.1/" xmlns:xl="http://www.w3.org/1999/xlink" viewBox="-102.5 222.5 1142 606" width="1142" height="606">
  <defs/>
  <g id="Canvas____V1" stroke-opacity="1" stroke="none" stroke-dasharray="none" fill="none" fill-opacity="1">
    <title>软路由 V1</title>
    <rect fill="white" x="-102.5" y="222.5" width="1142" height="606"/>
    <g id="Canvas____V1_Layer_1">
      <title>Layer 1</title>
      <g id="Graphic_12">
        <rect x="65.5" y="401" width="963.5" height="417" fill="#ebebeb"/>
        <rect x="65.5" y="401" width="963.5" height="417" stroke="gray" stroke-linecap="round" stroke-linejoin="round" stroke-width="1"/>
        <text transform="translate(70.5 406)" fill="black">
          <tspan font-family="PingFang SC" font-size="16" fill="black" x="0" y="17">客厅</tspan>
        </text>
      </g>
      <g id="Graphic_9">
        <rect x="65.5" y="233" width="280" height="124" fill="#ebebeb"/>
        <rect x="65.5" y="233" width="280" height="124" stroke="gray" stroke-linecap="round" stroke-linejoin="round" stroke-width="1"/>
        <text transform="translate(70.5 238)" fill="black">
          <tspan font-family="PingFang SC" font-size="16" fill="black" x="0" y="17">弱电箱</tspan>
        </text>
      </g>
      <g id="Graphic_3">
        <rect x="162" y="256.75" width="161.75" height="76.5" fill="white"/>
        <rect x="162" y="256.75" width="161.75" height="76.5" stroke="gray" stroke-linecap="round" stroke-linejoin="round" stroke-width="1"/>
        <text transform="translate(167 268)" fill="black">
          <tspan font-family="PingFang SC" font-size="14" fill="black" x="47.875" y="15">电信光猫</tspan>
          <tspan font-family="PingFang SC" font-size="12" fill="black" x="47.099" y="33">192.168.1.1 </tspan>
          <tspan font-family="PingFang SC" font-size="12" fill="black" x="35.123" y="50">255.255.255.0</tspan>
        </text>
      </g>
      <g id="Graphic_4">
        <rect x="552.25" y="433" width="161.75" height="76.5" fill="#c0ffc0"/>
        <rect x="552.25" y="433" width="161.75" height="76.5" stroke="gray" stroke-linecap="round" stroke-linejoin="round" stroke-width="1"/>
        <text transform="translate(557.25 444.25)" fill="black">
          <tspan font-family="PingFang SC" font-size="12" fill="black" x="44.711" y="13">10.200.1.94</tspan>
          <tspan font-family="PingFang SC" font-size="14" fill="black" x="38.908" y="32">R2S 软路由</tspan>
          <tspan font-family="PingFang SC" font-size="12" fill="black" x="35.705" y="50">192.168.2.1/24</tspan>
        </text>
      </g>
      <g id="Graphic_10">
        <text transform="translate(86 299.98026)" fill="black">
          <tspan font-family="PingFang SC" font-size="12" fill="black" x="0" y="13">光纤入户</tspan>
        </text>
      </g>
      <g id="Graphic_14">
        <path d="M -76.551155 297.67207 C -95.70312 295 -88.0658 272.50554 -57.51413 276.34375 C -54.67961 268.86185 -19.152125 270.07624 -19.384385 276.34375 C 2.89243 268.32753 31.36087 284.3117 12.26578 292.32793 C 35.17894 296.2144 11.97664 317.15417 -6.828125 313.65625 C -8.333075 319.48645 -41.95034 321.5267 -44.90099 313.65625 C -63.93683 322.0615 -103.62959 309.13795 -76.551155 297.67207 Z" fill="white"/>
        <path d="M -76.551155 297.67207 C -95.70312 295 -88.0658 272.50554 -57.51413 276.34375 C -54.67961 268.86185 -19.152125 270.07624 -19.384385 276.34375 C 2.89243 268.32753 31.36087 284.3117 12.26578 292.32793 C 35.17894 296.2144 11.97664 317.15417 -6.828125 313.65625 C -8.333075 319.48645 -41.95034 321.5267 -44.90099 313.65625 C -63.93683 322.0615 -103.62959 309.13795 -76.551155 297.67207 Z" stroke="gray" stroke-linecap="round" stroke-linejoin="round" stroke-width="1"/>
        <text transform="translate(-69.225 284)" fill="black">
          <tspan font-family="PingFang SC" font-size="16" fill="black" x="8.154998" y="17">Internet</tspan>
        </text>
      </g>
      <g id="Line_15">
        <line x1="19.521012" y1="295" x2="162" y2="295" stroke="black" stroke-linecap="round" stroke-linejoin="round" stroke-width="1"/>
      </g>
      <g id="Graphic_16">
        <path d="M 527 544 L 873 544 C 878.5228 544 883 548.47715 883 554 L 883 788.1875 C 883 793.71035 878.5228 798.1875 873 798.1875 L 527 798.1875 C 521.47715 798.1875 517 793.71035 517 788.1875 L 517 554 C 517 548.47715 521.47715 544 527 544 Z" fill="#ffffc0"/>
        <path d="M 527 544 L 873 544 C 878.5228 544 883 548.47715 883 554 L 883 788.1875 C 883 793.71035 878.5228 798.1875 873 798.1875 L 527 798.1875 C 521.47715 798.1875 517 793.71035 517 788.1875 L 517 554 C 517 548.47715 521.47715 544 527 544 Z" stroke="gray" stroke-linecap="round" stroke-linejoin="round" stroke-width="1"/>
        <text transform="translate(522 549)" fill="black">
          <tspan font-family="PingFang SC" font-size="16" fill="black" x="0" y="17">子网</tspan>
        </text>
      </g>
      <g id="Line_18">
        <line x1="242.875" y1="333.25" x2="242.875" y2="433" stroke="black" stroke-linecap="round" stroke-linejoin="round" stroke-width="1"/>
      </g>
      <g id="Graphic_21">
        <rect x="162" y="433" width="161.75" height="76.5" fill="#c0ffc0"/>
        <rect x="162" y="433" width="161.75" height="76.5" stroke="gray" stroke-linecap="round" stroke-linejoin="round" stroke-width="1"/>
        <text transform="translate(167 444.25)" fill="black">
          <tspan font-family="PingFang SC" font-size="12" fill="black" x="45.905" y="13">192.168.1.2</tspan>
          <tspan font-family="PingFang SC" font-size="14" fill="black" x="27.505" y="32">Linksys 路由器</tspan>
          <tspan font-family="PingFang SC" font-size="12" fill="black" x="39.305" y="50">10.200.1.1/24</tspan>
        </text>
      </g>
      <g id="Line_23">
        <line x1="323.75" y1="471.25" x2="391.75" y2="471.25" stroke="black" stroke-linecap="round" stroke-linejoin="round" stroke-width="1"/>
      </g>
      <g id="Graphic_26">
        <rect x="570.25" y="579" width="125.75" height="76.5" fill="#c0ffc0"/>
        <rect x="570.25" y="579" width="125.75" height="76.5" stroke="gray" stroke-linecap="round" stroke-linejoin="round" stroke-width="1"/>
        <text transform="translate(575.25 590.25)" fill="black">
          <tspan font-family="PingFang SC" font-size="12" fill="black" x="21.023" y="13">192.168.2.147</tspan>
          <tspan font-family="PingFang SC" font-size="14" fill="black" x="7.412" y="32">TP-Link 子路由</tspan>
          <tspan font-family="PingFang SC" font-size="12" fill="black" x="18.899" y="50">192.168.1.1/24</tspan>
        </text>
      </g>
      <g id="Line_39">
        <line x1="633.125" y1="509.5" x2="633.125" y2="579" stroke="black" stroke-linecap="round" stroke-linejoin="round" stroke-width="1"/>
      </g>
      <g id="Graphic_40">
        <rect x="734" y="592.375" width="125.75" height="49.75" fill="white"/>
        <rect x="734" y="592.375" width="125.75" height="49.75" stroke="gray" stroke-linecap="round" stroke-linejoin="round" stroke-width="1"/>
        <text transform="translate(739 598.75)" fill="black">
          <tspan font-family="PingFang SC" font-size="14" fill="black" x="30.827" y="15">Sony TV</tspan>
          <tspan font-family="PingFang SC" font-size="12" fill="black" x="21.899" y="33">192.168.1.100</tspan>
        </text>
      </g>
      <g id="Line_41">
        <line x1="696" y1="617.25" x2="734" y2="617.25" stroke="black" stroke-linecap="round" stroke-linejoin="round" stroke-width="1"/>
      </g>
      <g id="Graphic_42">
        <rect x="552.25" y="710" width="111.4762" height="56.625" fill="white"/>
        <rect x="552.25" y="710" width="111.4762" height="56.625" stroke="gray" stroke-linecap="round" stroke-linejoin="round" stroke-width="1"/>
        <text transform="translate(557.25 719.8125)" fill="black">
          <tspan font-family="PingFang SC" font-size="14" fill="black" x="14.989102" y="15">Playstation</tspan>
          <tspan font-family="PingFang SC" font-size="12" fill="black" x="14.762102" y="33">192.168.1.102</tspan>
        </text>
      </g>
      <g id="Graphic_43">
        <rect x="694.2738" y="710" width="111.4762" height="56.625" fill="white"/>
        <rect x="694.2738" y="710" width="111.4762" height="56.625" stroke="gray" stroke-linecap="round" stroke-linejoin="round" stroke-width="1"/>
        <text transform="translate(699.2738 719.8125)" fill="black">
          <tspan font-family="PingFang SC" font-size="14" fill="black" x="29.031102" y="15">Switch</tspan>
          <tspan font-family="PingFang SC" font-size="12" fill="black" x="14.762102" y="33">192.168.1.104</tspan>
        </text>
      </g>
      <g id="Graphic_77">
        <rect x="391.75" y="442.9375" width="57.25" height="56.625" fill="white"/>
        <rect x="391.75" y="442.9375" width="57.25" height="56.625" stroke="gray" stroke-linecap="round" stroke-linejoin="round" stroke-width="1"/>
        <text transform="translate(396.75 451.25)" fill="black">
          <tspan font-family="PingFang SC" font-size="14" fill="black" x="2.625" y="15">交换机</tspan>
          <tspan font-family="PingFang SC" font-size="14" fill="black" x="4.676" y="35">. . . . .</tspan>
        </text>
      </g>
      <g id="Line_78">
        <line x1="449" y1="471.25" x2="552.25" y2="471.25" stroke="black" stroke-linecap="round" stroke-linejoin="round" stroke-width="1"/>
      </g>
      <g id="Line_79">
        <path d="M 633.125 655.5 L 633.125 682.75 L 750.0119 682.75 L 750.0119 710" stroke="black" stroke-linecap="round" stroke-linejoin="round" stroke-dasharray="8.0,5.0" stroke-width="1"/>
      </g>
      <g id="Line_80">
        <path d="M 633.125 655.5 L 633.125 682.75 L 607.9881 682.75 L 607.9881 710" stroke="black" stroke-linecap="round" stroke-linejoin="round" stroke-dasharray="8.0,5.0" stroke-width="1"/>
      </g>
      <g id="Graphic_81">
        <rect x="361.875" y="561.4375" width="117" height="50.875" fill="white"/>
        <rect x="361.875" y="561.4375" width="117" height="50.875" stroke="gray" stroke-linecap="round" stroke-linejoin="round" stroke-width="1"/>
        <text transform="translate(366.875 568.375)" fill="black">
          <tspan font-family="PingFang SC" font-size="14" fill="black" x="21.23" y="15">树莓派 4B </tspan>
          <tspan font-family="PingFang SC" font-size="12" fill="black" x="8.656" y="33">IP：10.200.1.130</tspan>
        </text>
      </g>
      <g id="Graphic_83">
        <rect x="193.5625" y="555.6875" width="98.625" height="56.625" fill="white"/>
        <rect x="193.5625" y="555.6875" width="98.625" height="56.625" stroke="gray" stroke-linecap="round" stroke-linejoin="round" stroke-width="1"/>
        <text transform="translate(198.5625 565.5)" fill="black">
          <tspan font-family="PingFang SC" font-size="14" fill="black" x="22.2345" y="15">iPhone</tspan>
          <tspan font-family="PingFang SC" font-size="12" fill="black" x="9.8665" y="33">10.200.1.237</tspan>
        </text>
      </g>
      <g id="Line_85">
        <line x1="420.375" y1="499.5625" x2="420.375" y2="561.4375" stroke="black" stroke-linecap="round" stroke-linejoin="round" stroke-width="1"/>
      </g>
      <g id="Line_88">
        <line x1="242.875" y1="509.5" x2="242.875" y2="555.6875" stroke="black" stroke-linecap="round" stroke-linejoin="round" stroke-dasharray="4.0,4.0" stroke-width="1"/>
      </g>
      <g id="Line_94">
        <line x1="899.2941" y1="280.6103" x2="951.0238" y2="280.6103" stroke="black" stroke-linecap="round" stroke-linejoin="round" stroke-width="1"/>
      </g>
      <g id="Line_95">
        <line x1="899.2941" y1="308.3897" x2="951.0238" y2="308.3897" stroke="black" stroke-linecap="round" stroke-linejoin="round" stroke-dasharray="4.0,4.0" stroke-width="1"/>
      </g>
      <g id="Graphic_96">
        <text transform="translate(968 271.1103)" fill="black">
          <tspan font-family="PingFang SC" font-size="14" fill="black" x="0" y="15">有线连接</tspan>
        </text>
      </g>
      <g id="Graphic_97">
        <text transform="translate(968 298.8897)" fill="black">
          <tspan font-family="PingFang SC" font-size="14" fill="black" x="0" y="15">无线连接</tspan>
        </text>
      </g>
    </g>
  </g>
</svg>
